<svg width="57" height="58" viewBox="0 0 57 58" fill="none" xmlns="http://www.w3.org/2000/svg">
<path d="M56.5 52.4725C56.5 55.2183 54.2763 57.4438 51.5323 57.4438H5.46774C2.72374 57.4438 0.5 55.2183 0.5 52.4725V10.8952C0.5 8.14938 2.72374 5.92383 5.46774 5.92383H51.5323C54.2763 5.92383 56.5 8.14938 56.5 10.8952V52.4725ZM53.7903 10.8952C53.7903 9.64692 52.7796 8.63531 51.5323 8.63531H5.46774C4.22039 8.63531 3.20968 9.64692 3.20968 10.8952V52.4725C3.20968 53.7207 4.22039 54.7323 5.46774 54.7323H51.5323C52.7796 54.7323 53.7903 53.7207 53.7903 52.4725V10.8952Z" fill="#009640" stroke="#009640"/>
<path d="M24.7871 31.232H11.2388C10.4909 31.232 9.88391 30.6241 9.88391 29.8762C9.88391 29.1266 10.4909 28.5205 11.2388 28.5205H24.7871C25.535 28.5205 26.142 29.1266 26.142 29.8762C26.142 30.6241 25.535 31.232 24.7871 31.232Z" fill="#009640" stroke="#009640"/>
<path d="M45.5932 31.232H32.0448C31.297 31.232 30.69 30.6241 30.69 29.8762C30.69 29.1266 31.297 28.5205 32.0448 28.5205H45.5932C46.3411 28.5205 46.9481 29.1266 46.9481 29.8762C46.9481 30.6241 46.3411 31.232 45.5932 31.232Z" fill="#009640" stroke="#009640"/>
<path d="M18.3988 38.01C17.651 38.01 17.044 37.4031 17.044 36.6543V23.096C17.044 22.3472 17.651 21.7402 18.3988 21.7402C19.1467 21.7402 19.7537 22.3472 19.7537 23.096V36.6543C19.7537 37.4031 19.1467 38.01 18.3988 38.01Z" fill="#009640" stroke="#009640"/>
<path d="M49.3402 8.63445H33.9853C33.2375 8.63445 33.0162 8.02748 33.0162 7.27871V5.79923C33.0162 2.97574 34.9509 0.5 37.5946 0.5H45.7237C48.3719 0.5 51.0807 2.97574 51.0807 5.79923V7.27871C51.0807 8.02748 50.088 8.63445 49.3402 8.63445ZM35.7259 5.92297H48.371V5.79923C48.371 4.46877 46.8861 3.21148 45.7237 3.21148H37.5946C36.4358 3.21148 35.7259 4.46877 35.7259 5.79923V5.92297Z" fill="#009640" stroke="#009640"/>
<path d="M23.1465 8.63445H7.79167C7.0438 8.63445 6.82251 8.02748 6.82251 7.27871V5.79923C6.82251 2.97574 8.75722 0.5 11.401 0.5H19.53C22.1783 0.5 24.887 2.97574 24.887 5.79923V7.27871C24.887 8.02748 23.8944 8.63445 23.1465 8.63445ZM9.53219 5.92297H22.1773V5.79923C22.1773 4.46877 20.6924 3.21148 19.53 3.21148H11.401C10.2421 3.21148 9.53219 4.46877 9.53219 5.79923V5.92297Z" fill="#009640" stroke="#009640"/>
</svg>
