<svg width="66" height="66" viewBox="0 0 66 66" fill="none" xmlns="http://www.w3.org/2000/svg">
<g clip-path="url(#clip0_25_12623)">
<path d="M27.0613 30.8137C26.614 30.3665 26.0075 30.1152 25.375 30.1152C24.7425 30.1152 24.136 30.3665 23.6888 30.8137C23.2415 31.2609 22.9903 31.8675 22.9903 32.4999C22.9903 33.1324 23.2415 33.739 23.6888 34.1862L30.8138 41.3112C31.0357 41.5313 31.2989 41.7054 31.5882 41.8236C31.8776 41.9418 32.1874 42.0017 32.5 41.9999C32.8251 41.9896 33.1447 41.9126 33.4388 41.7737C33.733 41.6348 33.9955 41.437 34.21 41.1924L50.835 22.1924C51.2189 21.7158 51.404 21.1094 51.3517 20.4997C51.2994 19.89 51.0138 19.324 50.5544 18.9197C50.0949 18.5154 49.4972 18.3041 48.8858 18.3297C48.2744 18.3554 47.6964 18.6161 47.2725 19.0574L32.5 36.1574L27.0613 30.8137Z" fill="#009640"/>
<path d="M53.875 30.125C53.2451 30.125 52.641 30.3752 52.1956 30.8206C51.7502 31.266 51.5 31.8701 51.5 32.5C51.5 37.5391 49.4982 42.3718 45.935 45.935C42.3718 49.4982 37.5391 51.5 32.5 51.5C28.7477 51.4983 25.0799 50.3856 21.9592 48.3021C18.8384 46.2187 16.4044 43.2579 14.9641 39.7931C13.5238 36.3282 13.1417 32.5145 13.8659 28.8327C14.5902 25.151 16.3884 21.7662 19.0337 19.105C20.7929 17.3223 22.89 15.9083 25.2022 14.9459C27.5145 13.9835 29.9955 13.4919 32.5 13.5C34.0187 13.5095 35.5318 13.6847 37.0125 14.0225C37.3223 14.1183 37.6485 14.1497 37.971 14.1146C38.2934 14.0796 38.6053 13.9789 38.8873 13.8187C39.1693 13.6585 39.4155 13.4422 39.6108 13.1832C39.806 12.9242 39.9462 12.628 40.0225 12.3128C40.0989 11.9975 40.1099 11.67 40.0548 11.3504C39.9998 11.0308 39.8798 10.7258 39.7024 10.4543C39.5249 10.1828 39.2938 9.95049 39.0231 9.77175C38.7525 9.59301 38.4481 9.4716 38.1287 9.415C36.2837 8.98095 34.3954 8.75786 32.5 8.75C27.8078 8.77438 23.228 10.1881 19.3384 12.8128C15.4489 15.4375 12.424 19.1555 10.6455 23.4976C8.86699 27.8398 8.41453 32.6114 9.34524 37.2105C10.2759 41.8095 12.5481 46.0298 15.875 49.3387C20.2846 53.7504 26.2624 56.2354 32.5 56.25C38.7989 56.25 44.8398 53.7478 49.2938 49.2938C53.7478 44.8398 56.25 38.7989 56.25 32.5C56.25 31.8701 55.9998 31.266 55.5544 30.8206C55.109 30.3752 54.5049 30.125 53.875 30.125Z" fill="#009640"/>
</g>
<defs>
<clipPath id="clip0_25_12623">
<rect width="57" height="57" fill="white" transform="translate(4 4)"/>
</clipPath>
</defs>
</svg>
