<svg width="82" height="80" viewBox="0 0 82 80" fill="none" xmlns="http://www.w3.org/2000/svg">
<path d="M46.494 23.0241H25.625C25.402 22.9881 25.1738 23.0003 24.9561 23.0598C24.7385 23.1192 24.5366 23.2245 24.3644 23.3684C24.1922 23.5122 24.0539 23.6912 23.959 23.8928C23.8642 24.0945 23.8151 24.314 23.8151 24.5362C23.8151 24.7583 23.8642 24.9779 23.959 25.1795C24.0539 25.3812 24.1922 25.5601 24.3644 25.7039C24.5366 25.8478 24.7385 25.9531 24.9561 26.0125C25.1738 26.072 25.402 26.0842 25.625 26.0483H46.494C46.8587 25.9895 47.1902 25.8052 47.4295 25.5282C47.6687 25.2512 47.8001 24.8996 47.8001 24.5362C47.8001 24.1727 47.6687 23.8211 47.4295 23.5441C47.1902 23.2672 46.8587 23.0828 46.494 23.0241Z" fill="#009640" stroke="#009640"/>
<path d="M48.011 33.6696C47.99 33.2881 47.821 32.929 47.5387 32.6664C47.2565 32.4039 46.8825 32.2578 46.494 32.2584H25.625C25.4224 32.253 25.2207 32.2876 25.0319 32.3601C24.8431 32.4327 24.671 32.5417 24.5257 32.6808C24.3805 32.8199 24.2651 32.9862 24.1863 33.1699C24.1075 33.3536 24.0669 33.5509 24.067 33.7503C24.067 34.1567 24.2312 34.5464 24.5233 34.8338C24.8155 35.1211 25.2118 35.2826 25.625 35.2826H46.494C46.7022 35.2774 46.9073 35.2313 47.0971 35.1469C47.2869 35.0626 47.4575 34.9416 47.5989 34.7912C47.7404 34.6409 47.8497 34.4641 47.9205 34.2715C47.9913 34.0788 48.022 33.8742 48.011 33.6696Z" fill="#009640" stroke="#009640"/>
<path d="M25.625 41.2897C25.402 41.2538 25.1738 41.266 24.9561 41.3254C24.7385 41.3849 24.5366 41.4902 24.3644 41.634C24.1922 41.7779 24.0539 41.9568 23.959 42.1584C23.8642 42.3601 23.8151 42.5796 23.8151 42.8018C23.8151 43.024 23.8642 43.2435 23.959 43.4451C24.0539 43.6468 24.1922 43.8257 24.3644 43.9696C24.5366 44.1134 24.7385 44.2187 24.9561 44.2782C25.1738 44.3376 25.402 44.3498 25.625 44.3139H35.957C36.1799 44.3498 36.4081 44.3376 36.6258 44.2782C36.8435 44.2187 37.0454 44.1134 37.2176 43.9696C37.3897 43.8257 37.528 43.6468 37.6229 43.4451C37.7178 43.2435 37.7669 43.024 37.7669 42.8018C37.7669 42.5796 37.7178 42.3601 37.6229 42.1584C37.528 41.9568 37.3897 41.7779 37.2176 41.634C37.0454 41.4902 36.8435 41.3849 36.6258 41.3254C36.4081 41.266 36.1799 41.2538 35.957 41.2897H25.625Z" fill="#009640" stroke="#009640"/>
<path d="M36.203 59.1538H19.475C18.529 59.1538 17.6217 58.7842 16.9528 58.1263C16.2838 57.4684 15.908 56.5761 15.908 55.6457V15.3231C15.9026 14.8591 15.9908 14.3986 16.1677 13.9683C16.3445 13.538 16.6064 13.1465 16.9381 12.8165C17.2699 12.4864 17.665 12.2244 18.1004 12.0456C18.5359 11.8668 19.0031 11.7747 19.475 11.7748H52.275C52.7469 11.7747 53.2141 11.8668 53.6496 12.0456C54.085 12.2244 54.4801 12.4864 54.8119 12.8165C55.1436 13.1465 55.4055 13.538 55.5823 13.9683C55.7592 14.3986 55.8474 14.8591 55.842 15.3231V35.8877C55.8055 36.1069 55.8179 36.3314 55.8783 36.5454C55.9388 36.7595 56.0458 36.9581 56.1921 37.1274C56.3384 37.2968 56.5203 37.4328 56.7254 37.5261C56.9304 37.6194 57.1536 37.6677 57.3795 37.6677C57.6054 37.6677 57.8286 37.6194 58.0337 37.5261C58.2387 37.4328 58.4206 37.2968 58.5669 37.1274C58.7132 36.9581 58.8202 36.7595 58.8807 36.5454C58.9411 36.3314 58.9535 36.1069 58.917 35.8877V15.2425C58.917 13.5063 58.2186 11.8406 56.9741 10.6092C55.7297 9.37774 54.0403 8.68057 52.275 8.66992H19.475C17.7097 8.68057 16.0203 9.37774 14.7759 10.6092C13.5314 11.8406 12.833 13.5063 12.833 15.2425V55.5651C12.833 57.2975 13.5328 58.959 14.7784 60.1841C16.024 61.4091 17.7134 62.0973 19.475 62.0973H36.203C36.4056 62.1027 36.6073 62.0681 36.7961 61.9956C36.9849 61.923 37.1571 61.814 37.3023 61.6749C37.4475 61.5358 37.563 61.3695 37.6417 61.1858C37.7205 61.0021 37.7611 60.8048 37.761 60.6054C37.74 60.2132 37.5666 59.8438 37.2767 59.5737C36.9867 59.3036 36.6024 59.1533 36.203 59.1538Z" fill="#009640" stroke="#009640"/>
<path d="M69.085 63.7496C69.085 63.7496 69.085 63.5479 69.085 63.427C69.085 63.427 69.085 63.427 69.085 63.2254C69.1042 63.1458 69.1042 63.063 69.085 62.9834C68.3479 59.9331 68.0035 56.8037 68.06 53.6689C68.0899 49.9415 66.6727 46.3434 64.0975 43.6084C61.5223 40.8734 57.9831 39.2078 54.202 38.9512C50.3956 39.1493 46.8169 40.7959 44.2229 43.5427C41.6289 46.2895 40.2231 49.921 40.303 53.6689C40.3771 56.8045 40.0325 59.9361 39.278 62.9834C39.278 62.9834 39.278 62.9834 39.278 63.185C39.278 63.3867 39.278 63.185 39.278 63.427C39.2783 63.7038 39.2783 63.7038 39.2783 63.9816L39.278 63.9915C39.2662 64.0717 39.2662 64.1532 39.278 64.2334V64.4754H39.524H39.811H40.098C40.1784 64.4978 40.2636 64.4978 40.344 64.4754H47.232C47.3623 66.0931 48.1078 67.6032 49.3199 68.7045C50.5319 69.8057 52.1214 70.4173 53.7715 70.4173C55.4216 70.4173 57.0111 69.8057 58.2231 68.7045C59.4352 67.6032 60.1806 66.0931 60.311 64.4754H67.199H67.65H67.937L68.142 64.2334C68.1538 64.1532 68.1538 64.0717 68.142 63.9915L69.085 63.7496ZM54.202 41.8947C57.1742 42.1301 59.9436 43.4703 61.9468 45.6426C63.9499 47.8149 65.0363 50.6561 64.985 53.5883C64.9363 56.3562 65.1421 59.1229 65.6 61.8544H42.681C43.1704 59.1259 43.4037 56.3588 43.378 53.5883C43.2868 50.6389 44.3651 47.7701 46.3848 45.5881C48.4046 43.4061 51.2077 42.0817 54.202 41.8947ZM57.646 64.9189C57.553 65.7587 57.1479 66.5351 56.5085 67.0991C55.8691 67.6632 55.0404 67.9751 54.1815 67.9751C53.3226 67.9751 52.4939 67.6632 51.8545 67.0991C51.2151 66.5351 50.81 65.7587 50.717 64.9189H57.646Z" fill="#009640" stroke="#009640"/>
</svg>
