<svg width="62" height="62" viewBox="0 0 62 62" fill="none" xmlns="http://www.w3.org/2000/svg">
<path d="M13.64 18.8061C12.8133 18.8061 12.1933 19.4261 12.1933 20.2528C12.1933 21.0795 12.8133 21.6995 13.64 21.6995C14.4667 21.6995 15.0867 21.0795 15.0867 20.2528C15.0867 19.4261 14.6733 18.8061 13.64 18.8061ZM61.7933 20.2528C61.7933 19.8395 61.38 19.2195 60.9667 19.0128C60.5533 18.8061 59.9333 18.8061 59.52 19.0128C58.9 19.2195 57.8667 19.2195 57.4533 19.2195C52.7 12.3995 45.0533 9.09281 34.9267 9.09281C31.8267 9.09281 29.14 9.29948 27.6933 9.29948C26.66 7.64615 23.56 4.13281 17.98 4.13281C16.74 4.13281 15.5 4.13281 14.26 4.54615C13.2267 4.75281 12.6067 5.37281 12.1933 6.19948C11.78 7.43948 12.8133 8.47281 13.8467 9.50615C14.0533 9.91948 14.4667 10.3328 14.6733 10.7461C11.78 11.7795 8.88666 15.0861 7.85333 17.5661H4.13333H3.92666C2.06666 17.5661 0.41333 18.8061 0.41333 21.4928V30.1728C0.41333 31.8261 1.44666 33.4795 3.92666 33.4795H5.16666C5.99333 44.4328 16.5333 50.8395 20.2533 51.0462C20.46 51.6662 19.84 53.3195 19.6333 53.7328C19.0133 54.5595 19.0133 55.3862 19.4267 56.2128C19.6333 56.8328 20.46 57.6595 22.7333 57.6595H28.52C28.9333 57.6595 29.3467 57.4528 29.5533 57.2462C29.5533 57.2462 31.4133 55.3862 32.0333 52.2861C33.8933 52.4928 35.7533 52.4928 37.2 52.2861L36.7867 53.9395C36.7867 54.1462 36.3733 55.3862 37.2 56.4195C37.6133 56.8328 38.2333 57.4528 39.4733 57.4528H44.8467C45.26 57.4528 45.4667 57.2462 45.88 57.0395C46.5 56.6262 59.52 46.4995 60.9667 33.8928C61.5867 28.9328 60.9667 26.0395 60.76 24.7995C60.9667 24.3861 62 22.5261 61.7933 20.2528ZM57.2467 25.6261C57.2467 25.6261 58.28 27.8995 57.66 34.0995C56.42 44.2262 46.2933 53.1128 44.2267 54.7662H39.8867L40.7133 51.2528C40.92 50.8395 40.7133 50.2195 40.3 49.8062C39.8867 49.3928 39.4733 49.1861 38.8533 49.3928C38.8533 49.3928 37.2 49.5995 34.9267 49.5995C33.48 49.5995 32.0333 49.5995 30.7933 49.3928C30.38 49.3928 29.9667 49.3928 29.5533 49.8062C29.14 50.0128 29.14 50.4262 29.14 51.0462C29.14 52.9062 28.3133 54.3528 27.6933 54.9728H22.5267C23.1467 53.5261 23.56 51.2528 22.94 49.8062C22.5267 48.7728 21.4933 48.3595 20.46 48.3595C18.6 48.3595 8.06 42.5728 8.06 32.2395C8.06 31.4128 7.44 30.5861 6.40666 30.5861H3.72C3.51333 30.5861 3.30666 30.5861 3.30666 30.3795V21.6995C3.30666 20.6661 3.72 20.6661 3.92666 20.6661H4.13333H9.09333C9.71333 20.6661 10.3333 20.2528 10.54 19.4261C10.9533 17.5661 14.4667 13.2261 16.9467 13.2261C17.7733 13.2261 18.6 12.6061 18.6 11.5728C18.6 9.71281 17.36 8.26615 16.3267 7.23281C16.5333 7.23281 17.36 7.23281 17.98 7.23281C23.3533 7.23281 25.42 11.5728 25.6267 11.5728C25.8333 12.1928 26.4533 12.6061 27.28 12.3995C27.28 12.3995 31 11.9861 35.1333 11.9861C44.2267 11.9861 51.0467 14.8795 54.9733 20.8728C55.18 21.2861 55.3867 21.4928 55.5933 21.4928L55.8 21.6995C56.42 22.1128 57.2467 22.3195 58.4867 22.3195C58.0733 23.1461 57.66 23.7661 57.66 23.7661C57.04 24.3861 57.04 25.2128 57.2467 25.6261ZM42.3667 15.0861C34.3067 13.8461 28.52 14.8795 28.3133 14.8795C27.4867 15.0861 26.8667 15.9128 27.0733 16.7395C27.28 17.5661 28.1067 18.1861 28.9333 17.9795C28.9333 17.9795 34.3067 16.9461 41.9533 18.1861H42.16C42.9867 18.1861 43.6067 17.5661 43.6067 16.9461C43.8133 15.9128 43.1933 15.0861 42.3667 15.0861Z" fill="#009640"/>
</svg>
