<svg width="59" height="59" viewBox="0 0 59 59" fill="none" xmlns="http://www.w3.org/2000/svg">
<path d="M52.0859 0H29.0391C28.2555 0 27.6562 0.599219 27.6562 1.38281V8.02031C27.6562 9.03437 28.2094 9.95625 29.0391 10.4172C29.9148 10.9242 30.9289 10.9242 31.7586 10.4172C32.5883 9.91016 33.5563 9.67969 34.5242 9.67969C36.0453 9.67969 37.4742 10.2789 38.5344 11.3852C39.5945 12.4914 40.1477 13.9203 40.0555 15.4875C39.9172 18.3453 37.5664 20.65 34.7547 20.7422C33.6945 20.7883 32.6805 20.5117 31.7586 20.0047C30.9289 19.4977 29.8687 19.4977 29.0391 20.0047C28.1633 20.5117 27.6562 21.4336 27.6562 22.4016V27.6562L22.3555 27.7023C23.1391 26.3656 23.5539 24.7984 23.4617 23.1852C23.2773 18.9445 19.8203 15.4414 15.5797 15.2109C13.275 15.1187 11.1086 15.9023 9.44922 17.4695C7.83594 19.0828 6.91406 21.2031 6.91406 23.5078C6.91406 24.9828 7.28281 26.4117 8.02031 27.6562H1.38281C0.599219 27.6562 0 28.2555 0 29.0391V52.0859C0 55.4047 2.67344 58.0781 5.99219 58.0781H29.0391C29.8227 58.0781 30.4219 57.4789 30.4219 56.6953V50.0578C30.4219 49.0437 29.8687 48.1219 29.0391 47.6609C28.1633 47.1539 27.1492 47.1539 26.3195 47.6609C25.4898 48.168 24.5219 48.3984 23.5539 48.3984C22.0328 48.3984 20.6039 47.7992 19.5438 46.693C18.4836 45.5867 17.9305 44.1578 18.0227 42.5906C18.1609 39.7328 20.5117 37.4281 23.3234 37.3359C24.3836 37.2898 25.3977 37.5664 26.3195 38.0734C27.1492 38.5805 28.2094 38.5805 29.0391 38.0734C29.9148 37.5664 30.4219 36.6445 30.4219 35.6766V30.4219H35.7227C34.9391 31.8047 34.5242 33.3258 34.6164 34.9391C34.8008 39.1797 38.2578 42.6828 42.4984 42.9133C44.8031 43.0055 46.9695 42.2219 48.6289 40.6547C50.2883 39.0875 51.2102 36.9211 51.2102 34.6625C51.2102 33.1875 50.8414 31.7586 50.1039 30.5141H55.3125V52.1781C55.3125 53.9758 53.8836 55.4047 52.0859 55.4047H38.2578C37.4742 55.4047 36.875 56.0039 36.875 56.7875C36.875 57.5711 37.4742 58.1703 38.2578 58.1703H52.0859C55.4047 58.1703 58.0781 55.4969 58.0781 52.1781V5.99219C58.0781 2.67344 55.4047 0 52.0859 0ZM23.1852 34.5703C18.9445 34.7547 15.4414 38.2117 15.2109 42.4523C15.1187 44.757 15.9023 46.9234 17.4695 48.5828C19.0367 50.2422 21.2031 51.1641 23.4617 51.1641C24.9367 51.1641 26.3656 50.7953 27.6102 50.0578V55.3125H5.99219C4.19453 55.3125 2.76562 53.8836 2.76562 52.0859V30.4219H8.02031C9.03438 30.4219 9.95625 29.8687 10.4172 29.0391C10.8781 28.2094 10.9242 27.1492 10.4172 26.3195C9.91016 25.4898 9.67969 24.5219 9.67969 23.5539C9.67969 22.0328 10.2789 20.6039 11.3852 19.5437C12.4914 18.4836 13.9664 17.9305 15.4875 18.0227C18.3453 18.1609 20.65 20.5117 20.7422 23.3234C20.7883 24.3836 20.5117 25.3977 20.0047 26.3195C19.4977 27.1492 19.4977 28.2094 20.0047 29.0391C20.5117 29.8687 21.4336 30.4219 22.4016 30.4219H27.6562V35.7227C26.3195 34.893 24.7523 34.5242 23.1852 34.5703ZM55.3125 27.6562H50.0578C49.0438 27.6562 48.1219 28.2094 47.6609 29.0391C47.1539 29.9148 47.1539 30.9289 47.6609 31.7586C48.168 32.5883 48.3984 33.5562 48.3984 34.5242C48.3984 36.0453 47.7992 37.4742 46.693 38.5344C45.5867 39.5945 44.1117 40.1477 42.5906 40.0555C39.7328 39.9172 37.4281 37.5664 37.3359 34.7547C37.2898 33.6945 37.5664 32.6805 38.0734 31.7586C38.5805 30.9289 38.5805 29.8687 38.0734 29.0391C37.5664 28.1633 36.6445 27.6562 35.6766 27.6562H30.4219V22.3555C31.7586 23.1391 33.3258 23.5539 34.9391 23.4617C39.1797 23.2773 42.6828 19.8203 42.9133 15.5797C43.0055 13.275 42.2219 11.1086 40.6547 9.44922C38.9953 7.83594 36.875 6.91406 34.5703 6.91406C33.0953 6.91406 31.6664 7.28281 30.4219 8.02031V2.76562H52.0859C53.8836 2.76562 55.3125 4.19453 55.3125 5.99219V27.6562Z" fill="#009640"/>
</svg>
