<svg width="68" height="68" viewBox="0 0 68 68" fill="none" xmlns="http://www.w3.org/2000/svg">
<g clip-path="url(#clip0_25_13791)">
<path d="M35.603 13.6899C36.6735 13.6899 38.5592 14.3147 40.1697 15.6864C41.4229 16.7536 42.9165 18.6119 42.9165 21.4034C42.9165 22.0572 43.4466 22.5872 44.1004 22.5872C44.7544 22.5872 45.2842 22.0572 45.2842 21.4034C45.2842 14.7846 38.9816 11.3223 35.603 11.3223C34.9493 11.3223 34.4192 11.8522 34.4192 12.5061C34.4192 13.1599 34.9493 13.6899 35.603 13.6899Z" fill="#009640" stroke="#009640"/>
<path d="M58.7555 46.8564C58.3172 46.143 57.8475 45.3779 57.3752 44.5572C57.322 44.3592 57.22 44.1815 57.0809 44.0388C55.2104 40.6963 53.3884 36.4592 53.3884 31.0107C53.3884 18.1758 46.3074 7.49055 36.8248 5.27768C37.1065 4.79427 37.271 4.23377 37.271 3.63393C37.271 1.82755 35.8065 0.363281 34.0001 0.363281C32.1939 0.363281 30.7293 1.82751 30.7293 3.63393C30.7293 4.23377 30.8936 4.79427 31.1756 5.27768C21.6929 7.49055 14.6117 18.1758 14.6117 31.0107C14.6117 38.1206 11.5095 43.1698 9.24446 46.8564C7.45852 49.7632 6.16818 51.8635 7.22664 53.758C8.53775 56.1052 12.9024 56.9371 27.149 57.1232C26.7116 58.077 26.4658 59.1363 26.4658 60.2525C26.4658 64.4071 29.8456 67.7869 34.0001 67.7869C38.1546 67.7869 41.5342 64.407 41.5342 60.2525C41.5342 59.1363 41.2884 58.077 40.8508 57.1232C55.0978 56.9371 59.462 56.1052 60.7733 53.758C61.832 51.8635 60.5414 49.7632 58.7555 46.8564ZM34.0001 65.4192C31.1511 65.4192 28.8333 63.1015 28.8333 60.2525C28.8333 59.0892 29.22 58.0147 29.8714 57.1501C31.1736 57.1596 32.5468 57.1647 33.999 57.1661C33.9998 57.1661 34.0004 57.1661 34.0013 57.1661C35.4534 57.1647 36.8264 57.1596 38.1289 57.1501C38.7798 58.0147 39.1667 59.0892 39.1667 60.2525C39.1666 63.1015 36.8489 65.4192 34.0001 65.4192ZM58.7066 52.6034C58.4833 53.0029 57.4574 53.7426 53.0928 54.2076C50.0342 54.5339 45.732 54.7117 39.1636 54.7736C37.5788 54.7885 35.8636 54.7967 34.0001 54.7985C32.1365 54.7967 30.4212 54.7885 28.8363 54.7736C22.2681 54.7117 17.9657 54.5338 14.9071 54.2076C10.5429 53.7426 9.51677 53.0029 9.2935 52.6034C8.91202 51.9203 10.0534 50.0626 11.2618 48.096C11.6474 47.4684 12.0666 46.7849 12.4966 46.0474H17.4571C18.1109 46.0474 18.6409 45.5174 18.6409 44.8636C18.6409 44.2097 18.1109 43.6797 17.4571 43.6797H13.79C15.4703 40.3567 16.9793 36.1619 16.9793 31.0107C16.9793 24.7762 18.7821 18.8804 22.0555 14.4088C25.2378 10.0616 29.4778 7.52062 34.0001 7.24813C38.5225 7.52062 42.7622 10.0617 45.9447 14.4088C49.218 18.8804 51.0208 24.7763 51.0208 31.0107C51.0208 36.1619 52.5296 40.3568 54.2101 43.6797H22.6106C21.9568 43.6797 21.4268 44.2097 21.4268 44.8636C21.4268 45.5174 21.9568 46.0474 22.6106 46.0474H55.5037C55.9334 46.7849 56.3529 47.4682 56.7384 48.0957C57.9466 50.0626 59.0882 51.9203 58.7066 52.6034Z" fill="#009640" stroke="#009640"/>
</g>
<defs>
<clipPath id="clip0_25_13791">
<rect width="68" height="68" fill="white"/>
</clipPath>
</defs>
</svg>
