<svg width="68" height="68" viewBox="0 0 68 68" fill="none" xmlns="http://www.w3.org/2000/svg">
<g clip-path="url(#clip0_25_13787)">
<path d="M45.3333 28.4113C51.7082 29.116 56.6666 34.5207 56.6666 41.0834V66.5834C56.6666 67.3659 56.0324 68.0001 55.25 68.0001C54.4676 68.0001 53.8333 67.3659 53.8333 66.5834V41.0834C53.8333 36.0876 50.1391 31.9546 45.3333 31.2672L45.3333 48.1668C45.3333 51.2964 42.7963 53.8334 39.6666 53.8334C37.1367 53.8334 34.9014 53.1545 33.0038 51.7951C32.2821 51.2782 31.4166 51.0002 30.5277 51.0002C29.7991 51.0001 29.2138 51.422 29.0053 52.0474C28.691 52.9904 28.8796 53.9094 29.4636 54.5664L39.3088 65.6423C39.8286 66.227 39.7759 67.1225 39.1912 67.6423C38.6064 68.1621 37.711 68.1094 37.1912 67.5246L30.0331 59.4718C29.9416 59.4904 29.8469 59.5001 29.75 59.5001H18.4166C14.5046 59.5001 11.3333 56.3288 11.3333 52.4168V7.08333C11.3333 3.17132 14.5046 1.69286e-06 18.4166 1.69286e-06L38.25 0C42.162 1.16868e-06 45.3333 3.17132 45.3333 7.08334L45.3333 28.4113ZM27.346 56.4488C26.0886 55.0343 25.6825 53.0559 26.281 51.2605C26.9115 49.369 28.5795 48.1668 30.4595 48.1668C32.0084 48.1668 33.4509 48.6302 34.6537 49.4918C36.0568 50.4969 37.7136 51.0001 39.6666 51.0001C41.2315 51.0001 42.5 49.7316 42.5 48.1668L42.5 7.08333C42.5 4.73612 40.5972 2.83333 38.25 2.83333L18.4166 2.83334C16.0694 2.83334 14.1666 4.73612 14.1666 7.08333V52.4168C14.1666 54.764 16.0694 56.6668 18.4166 56.6668H27.5397L27.346 56.4488ZM24.0833 8.50011C23.3009 8.50011 22.6666 7.86585 22.6666 7.08344C22.6666 6.30104 23.3009 5.66678 24.0833 5.66678H32.5833C33.3657 5.66678 34 6.30104 34 7.08344C34 7.86585 33.3657 8.50011 32.5833 8.50011H24.0833Z" fill="#009640"/>
</g>
<defs>
<clipPath id="clip0_25_13787">
<rect width="68" height="68" fill="white"/>
</clipPath>
</defs>
</svg>
