<svg width="52" height="70" viewBox="0 0 52 70" fill="none" xmlns="http://www.w3.org/2000/svg">
<path d="M17.4999 69.5C21.1073 69.4997 24.6211 68.3477 27.5331 66.2106C30.4452 64.0735 32.6045 61.062 33.6988 57.6118C34.7932 54.1616 34.7658 50.4514 33.6206 47.0178C32.4755 43.5843 30.272 40.6053 27.3287 38.5117V10.3155C27.3155 7.70766 26.2741 5.21118 24.4323 3.37186C22.5904 1.53254 20.098 0.5 17.4998 0.5C14.9017 0.5 12.4092 1.53254 10.5674 3.37186C8.72553 5.21118 7.68416 7.70766 7.67093 10.3155V38.5117C4.72776 40.6053 2.52433 43.5843 1.37927 47.0179C0.234204 50.4514 0.206872 54.1615 1.30122 57.6117C2.39557 61.0619 4.55488 64.0732 7.46688 66.2103C10.3789 68.3474 13.8926 69.4997 17.4999 69.5ZM9.58754 40.2058C9.75908 40.0925 9.89985 39.9383 9.99715 39.7568C10.0945 39.5753 10.1452 39.3724 10.1449 39.1664V10.3155C10.1564 8.36508 10.9363 6.49849 12.3144 5.1234C13.6924 3.74831 15.5567 2.97647 17.4998 2.97647C19.443 2.97647 21.3072 3.74831 22.6853 5.1234C24.0633 6.49849 24.8433 8.36508 24.8547 10.3155V39.1664C24.8544 39.3725 24.9052 39.5754 25.0026 39.7569C25.0999 39.9383 25.2408 40.0926 25.4124 40.2058C28.0392 41.9184 30.0441 44.4375 31.128 47.3873C32.212 50.3371 32.3169 53.5596 31.4271 56.5741C30.5373 59.5886 28.7005 62.2337 26.1906 64.1148C23.6807 65.9959 20.6323 67.0122 17.4999 67.0122C14.3676 67.0122 11.3191 65.9959 8.80929 64.1148C6.29942 62.2337 4.46262 59.5886 3.57283 56.5741C2.68304 53.5596 2.78793 50.3371 3.87187 47.3873C4.9558 44.4375 6.9607 41.9184 9.58754 40.2058Z" fill="#009640" stroke="#009640"/>
<path d="M17.5001 60.4987C19.7786 60.5038 21.9738 59.6836 23.641 58.2043C25.3082 56.725 26.3227 54.6972 26.4789 52.5319C26.635 50.3666 25.9212 48.2258 24.4821 46.5432C23.043 44.8605 20.9861 43.762 18.7284 43.4702C18.7674 43.3657 18.7907 43.2565 18.7976 43.1458V8.7185C18.7928 8.39373 18.6539 8.08385 18.4111 7.85584C18.1682 7.62782 17.841 7.5 17.5 7.5C17.1591 7.5 16.8318 7.62782 16.589 7.85584C16.3461 8.08385 16.2073 8.39373 16.2024 8.7185V43.147C16.2094 43.2577 16.2327 43.367 16.2716 43.4715C14.0138 43.7633 11.9568 44.8619 10.5177 46.5447C9.0785 48.2275 8.3648 50.3686 8.52119 52.534C8.67758 54.6994 9.69237 56.7272 11.3599 58.2064C13.0274 59.6855 15.2216 60.5042 17.5001 60.4987ZM17.5001 45.8245C18.7665 45.8248 20.0043 46.1827 21.0571 46.853C22.1099 47.5234 22.9304 48.476 23.4149 49.5906C23.8994 50.7051 24.0261 51.9314 23.779 53.1145C23.5319 54.2976 22.922 55.3844 22.0266 56.2374C21.1312 57.0903 19.9903 57.6713 18.7484 57.9067C17.5064 58.1421 16.219 58.0214 15.049 57.5599C13.879 57.0983 12.8789 56.3167 12.1752 55.3138C11.4715 54.3109 11.0958 53.1318 11.0955 51.9255C11.0977 50.3081 11.7732 48.7575 12.9738 47.6138C14.1744 46.4701 15.8022 45.8266 17.5001 45.8245Z" fill="#009640" stroke="#009640"/>
<path d="M35.7472 12.5H50.2528C50.5852 12.4962 50.9024 12.3892 51.1358 12.2021C51.3692 12.015 51.5 11.7628 51.5 11.5C51.5 11.2372 51.3692 10.985 51.1358 10.7979C50.9024 10.6108 50.5852 10.5038 50.2528 10.5H35.7472C35.4148 10.5038 35.0976 10.6108 34.8642 10.7979C34.6308 10.985 34.5 11.2372 34.5 11.5C34.5 11.7628 34.6308 12.015 34.8642 12.2021C35.0976 12.3892 35.4148 12.4962 35.7472 12.5Z" fill="#009640" stroke="#009640"/>
<path d="M35.7631 23.5H50.2369C50.5719 23.5 50.8932 23.342 51.1301 23.0607C51.3669 22.7794 51.5 22.3978 51.5 22C51.5 21.6022 51.3669 21.2206 51.1301 20.9393C50.8932 20.658 50.5719 20.5 50.2369 20.5H35.7631C35.4281 20.5 35.1068 20.658 34.87 20.9393C34.6331 21.2206 34.5 21.6022 34.5 22C34.5 22.3978 34.6331 22.7794 34.87 23.0607C35.1068 23.342 35.4281 23.5 35.7631 23.5Z" fill="#009640" stroke="#009640"/>
<path d="M35.7631 33.5H50.2369C50.5719 33.5 50.8932 33.342 51.1301 33.0607C51.3669 32.7794 51.5 32.3978 51.5 32C51.5 31.6022 51.3669 31.2206 51.1301 30.9393C50.8932 30.658 50.5719 30.5 50.2369 30.5H35.7631C35.4281 30.5 35.1068 30.658 34.87 30.9393C34.6331 31.2206 34.5 31.6022 34.5 32C34.5 32.3978 34.6331 32.7794 34.87 33.0607C35.1068 33.342 35.4281 33.5 35.7631 33.5Z" fill="#009640" stroke="#009640"/>
</svg>
